<?xml version="1.0" encoding="UTF-8" standalone="no"?>
<svg
   viewBox="0 0 56.692914 34.015747"
   version="1.1"
   id="svg2"
   sodipodi:docname="mcstas.svg"
   inkscape:version="1.4.1-rc (06eac75fbf, 2025-03-29)"
   width="1.5cm"
   height="0.89999998cm"
   xmlns:inkscape="http://www.inkscape.org/namespaces/inkscape"
   xmlns:sodipodi="http://sodipodi.sourceforge.net/DTD/sodipodi-0.dtd"
   xmlns="http://www.w3.org/2000/svg"
   xmlns:svg="http://www.w3.org/2000/svg">
  <defs
     id="defs2" />
  <sodipodi:namedview
     id="namedview2"
     pagecolor="#ffffff"
     bordercolor="#000000"
     borderopacity="0.25"
     inkscape:showpageshadow="2"
     inkscape:pageopacity="0.0"
     inkscape:pagecheckerboard="0"
     inkscape:deskcolor="#d1d1d1"
     inkscape:zoom="6.2662294"
     inkscape:cx="35.188626"
     inkscape:cy="18.910894"
     inkscape:window-width="1214"
     inkscape:window-height="731"
     inkscape:window-x="0"
     inkscape:window-y="0"
     inkscape:window-maximized="1"
     inkscape:current-layer="svg2"
     showguides="true"
     inkscape:lockguides="false"
     inkscape:document-units="cm" />
  <path
     id="circle1"
     style="fill:currentColor"
     d="m 26.78591,1.6558092 a 16,16 0 0 0 -16,15.9999998 16,16 0 0 0 16,16 16,16 0 0 0 16,-16 16,16 0 0 0 -16,-15.9999998 z m -2.359375,5.2578121 -1.160156,5.4003907 c 2.68,-3.6799997 5.04039,-5.4003907 7.40039,-5.4003907 2.12,0 3.839844,1.758907 3.839844,3.8789067 0,1.16 -0.320937,2.681484 -0.960937,4.521484 l -1.878907,5.519531 c -0.64,1.76 -0.761718,2.239688 -0.761718,2.679688 0,0.44 0.32164,0.759766 0.68164,0.759766 1.28,-1e-6 2.96,-1.598829 5,-4.798829 l 1.160157,0.839844 c -2.160001,3.84 -4.801329,6 -7.361329,6 -1.56,0 -2.759765,-1.28 -2.759765,-3 0,-0.84 0.200703,-1.720312 0.720703,-3.320312 l 2.119141,-6.240235 c 0.44,-1.28 0.599609,-2.080781 0.599609,-2.800781 0,-0.92 -0.679609,-1.6386717 -1.599609,-1.6386717 -1.72,0 -3.840547,1.5591407 -5.560547,4.1191407 -1.44,2.12 -1.918985,3.240703 -2.958985,6.720703 l -1.640625,5.560547 h -3.480469 l 4.080079,-13.761719 c 0.28,-0.92 0.361328,-1.359766 0.361328,-1.759766 0,-0.8799997 -0.64125,-1.2402337 -2.28125,-1.2402337 h -0.958985 l 0.160157,-1.439453 z" />
  <line
     x1="42.785912"
     y1="17.655809"
     x2="48.593151"
     y2="17.655809"
     stroke="currentColor"
     stroke-width="0.983806"
     id="line2" />
  <polygon
     points="90,15 100,20 90,25 "
     fill="currentColor"
     id="polygon2"
     transform="translate(-43.21409,-2.3441897)" />
  <line
     x1="0.19109854"
     y1="17.655809"
     x2="10.78591"
     y2="17.655809"
     stroke="currentColor"
     stroke-width="1.32884"
     id="line2-6" />
  <g
     id="svg2-6"
     transform="translate(-34.630076,-1.042325)" />
</svg>
